<svg height="480pt" viewBox="0 0 480 480" width="480pt" xmlns="http://www.w3.org/2000/svg"><path d="m240 0c-132.546875 0-240 107.453125-240 240s107.453125 240 240 240 240-107.453125 240-240c-.148438-132.484375-107.515625-239.851562-240-240zm0 464c-123.710938 0-224-100.289062-224-224s100.289062-224 224-224 224 100.289062 224 224c-.140625 123.652344-100.347656 223.859375-224 224zm0 0"/><path d="m184 192h184v-64h-184v-59.3125l-91.3125 91.3125 91.3125 91.3125zm-16 20.6875-52.6875-52.6875 52.6875-52.6875v36.6875h184v32h-184zm0 0"/><path d="m288 288h-184v64h184v59.3125l91.3125-91.3125-91.3125-91.3125zm16-20.6875 52.6875 52.6875-52.6875 52.6875v-36.6875h-184v-32h184zm0 0"/></svg>