<svg height="482pt" viewBox="-1 0 482 482.71875" width="482pt" xmlns="http://www.w3.org/2000/svg"><path d="m480.140625 144c-4.382813-80.6875-71.035156-143.898438-151.84375-144-4.417969 0-8 3.582031-8 8v44.320312c-.007813 2.871094 1.515625 5.523438 4 6.960938 2.496094 1.359375 5.507813 1.359375 8 0 3.640625-2.140625 7.78125-3.273438 12-3.28125 13.257813 0 24 10.746094 24 24s-10.742187 24-24 24c-2.730469.011719-5.441406-.476562-8-1.441406-1.382813-.496094-2.71875-1.113282-4-1.839844-2.476563-1.429688-5.535156-1.425781-8.011719.007812-2.476562 1.4375-3.996094 4.089844-3.988281 6.953126v44.320312c0 4.417969 3.582031 8 8 8h32.882813c-.613282 2.621094-.910157 5.308594-.882813 8 0 22.089844 17.910156 40 40 40 22.09375 0 40-17.910156 40-40 .03125-2.691406-.265625-5.378906-.878906-8h32.878906c4.421875 0 8-3.582031 8-8 0-2.640625-.078125-5.359375-.15625-8zm-52.160156 0c-2.867188-.011719-5.515625 1.507812-6.953125 3.984375-1.4375 2.480469-1.441406 5.535156-.007813 8.015625.726563 1.277344 1.339844 2.617188 1.839844 4 .960937 2.558594 1.449219 5.269531 1.4375 8 0 13.253906-10.742187 24-24 24-13.253906 0-24-10.746094-24-24-.007813-2.730469.480469-5.441406 1.441406-8 .5-1.382812 1.113281-2.722656 1.839844-4 1.433594-2.480469 1.429687-5.535156-.007813-8.015625-1.4375-2.476563-4.085937-3.996094-6.953124-3.984375h-36.320313v-24.878906c2.625.613281 5.308594.90625 8 .878906 22.09375 0 40-17.910156 40-40s-17.90625-40-40-40c-2.683594-.015625-5.367187.253906-8 .800781v-24.5625c68.765625 4.164063 123.601563 59 127.761719 127.761719zm0 0"/><path d="m384.296875 224h-44.316406c-2.871094-.011719-5.527344 1.515625-6.960938 4-1.359375 2.492188-1.359375 5.507812 0 8 2.140625 3.636719 3.269531 7.78125 3.277344 12 0 13.253906-10.742187 24-24 24-13.253906 0-24-10.746094-24-24-.007813-2.730469.480469-5.441406 1.441406-8 .5-1.382812 1.113281-2.722656 1.839844-4 1.433594-2.480469 1.429687-5.535156-.007813-8.015625-1.4375-2.476563-4.085937-3.996094-6.953124-3.984375h-36.320313v-24.878906c2.625.613281 5.308594.90625 8 .878906 22.09375 0 40-17.910156 40-40s-17.90625-40-40-40c-2.691406-.027344-5.375.265625-8 .878906v-32.878906c0-4.417969-3.578125-8-8-8-53.644531-.035156-103.335937 28.230469-130.71875 74.359375-27.382813 46.132813-28.402344 103.289063-2.679687 150.367187l-5.007813 3.136719c-1.507813.945313-2.65625 2.367188-3.265625 4.039063l-12.550781 34.496094-31.632813 14.722656-3.742187-8.089844c-1.863281-4.007812-6.625-5.746094-10.632813-3.878906l-35.039062 16.320312c-1.933594.886719-3.433594 2.503906-4.171875 4.5-.738281 1.996094-.648438 4.199219.242187 6.132813l47.601563 102c1.867187 4 6.628906 5.730469 10.632812 3.863281l34.957031-16.320312c4-1.871094 5.730469-6.625 3.867188-10.625l-3.519531-7.558594 21.382812-10.007813 41.992188 15.261719c.804687.289062 1.652343.449219 2.511719.472656l75.847656 2.089844h.214844c1.167968-.003906 2.320312-.257812 3.375-.746094l30.800781-14.320312c1.125-.527344 2.113281-1.308594 2.890625-2.277344l14.742187-18.554688 83.3125-44.984374c3.710938-2.011719 5.21875-6.566407 3.441407-10.398438l-16.96875-36.390625c22.035156-26.996094 34.085937-60.761719 34.117187-95.609375 0-4.417969-3.578125-8-8-8zm-152-127.609375v35.929687c-.007813 2.863282 1.511719 5.515626 3.988281 6.953126 2.476563 1.433593 5.535156 1.4375 8.011719.007812 1.28125-.726562 2.617187-1.34375 4-1.839844 2.558594-.964844 5.269531-1.453125 8-1.441406 13.257813 0 24 10.746094 24 24s-10.742187 24-24 24c-2.730469.011719-5.441406-.476562-8-1.441406-1.382813-.496094-2.71875-1.113282-4-1.839844-2.476563-1.429688-5.535156-1.425781-8.011719.007812-2.476562 1.4375-3.996094 4.089844-3.988281 6.953126v36.320312h-24.878906c.613281-2.621094.910156-5.308594.878906-8 0-22.089844-17.90625-40-40-40-22.089844 0-40 17.910156-40 40-.027344 2.691406.269531 5.378906.882813 8h-24.640626c4.195313-68.722656 59.03125-123.496094 127.757813-127.609375zm-127.757813 143.609375h36.078126c2.867187.011719 5.515624-1.507812 6.953124-3.984375 1.4375-2.480469 1.441407-5.535156.007813-8.015625-.726563-1.277344-1.339844-2.617188-1.839844-4-.960937-2.558594-1.449219-5.269531-1.441406-8 0-13.253906 10.746094-24 24-24 13.257813 0 24 10.746094 24 24 .011719 2.730469-.476563 5.441406-1.4375 8-.5 1.382812-1.113281 2.722656-1.839844 4-1.433593 2.480469-1.429687 5.535156.007813 8.015625 1.4375 2.476563 4.085937 3.996094 6.953125 3.984375h36.316406v24.878906c-2.621094-.613281-5.304687-.90625-8-.878906-9.675781-.015625-19.023437 3.515625-26.269531 9.929688l-7.90625-12.136719c-2.382813-3.65625-7.261719-4.726563-10.957032-2.402344l-58.753906 36.847656c-9.332031-17.359375-14.75-36.558593-15.871094-56.238281zm127.757813 129.105469-43.109375-15.730469-10.28125-22.046875 10.320312-8.359375c6.910157 12.949219 20.394532 21.035156 35.070313 21.03125 2.695313.027344 5.378906-.265625 8-.878906zm-172.453125 94.984375-40.800781-87.496094 20.519531-9.601562 40.734375 87.535156zm219.535156-58.011719c-.949218.519531-1.789062 1.222656-2.464844 2.066406l-14.582031 18.398438-27.378906 12.65625-72.664063-1.992188-43.894531-16c-2-.714843-4.199219-.617187-6.128906.273438l-24.351563 11.480469-26.71875-57.335938 34.632813-16.136719c1.925781-.894531 3.414063-2.519531 4.144531-4.511719l12.75-34.976562 68.289063-42.839844 13.597656 20.878906-30.636719 24.800782c-2.855468 2.3125-3.765625 6.273437-2.210937 9.601562l14.320312 30.726563c.894531 1.921875 2.515625 3.40625 4.503907 4.136719l52.640624 19.199218c1.996094.726563 4.203126.628906 6.128907-.273437l105.550781-49.253907 12.550781 26.953126zm64.6875-86.398437-95.769531 44.703124v-32.703124c.011719-2.863282-1.507813-5.515626-3.984375-6.953126-2.476562-1.433593-5.535156-1.4375-8.015625-.007812-1.277344.726562-2.613281 1.34375-4 1.839844-2.554687.964844-5.265625 1.453125-8 1.441406-9.921875.027344-18.835937-6.074219-22.398437-15.335938l8.359374-6.769531c3.183594-2.578125 3.902344-7.148437 1.664063-10.582031l-5.0625-7.769531c6.570313-6.8125 16.496094-9.191407 25.4375-6.101563 1.386719.496094 2.722656 1.113282 4 1.839844 2.480469 1.429688 5.539063 1.425781 8.015625-.007812 2.476562-1.4375 3.996094-4.089844 3.984375-6.953126v-36.320312h24.882813c-.613282 2.621094-.910157 5.308594-.882813 8 0 22.089844 17.910156 40 40 40 22.09375 0 40-17.910156 40-40-.023437-2.683594-.289063-5.363281-.796875-8h24.4375c-1.730469 29.308594-12.914062 57.269531-31.871094 79.6875zm0 0"/></svg>