<?xml version="1.0"?>
<svg xmlns="http://www.w3.org/2000/svg" viewBox="0 0 64 64" width="512" height="512"><g id="analytics-blackboard-chart-report-2" data-name="analytics-blackboard-chart-report"><path d="M60,2H4A2,2,0,0,0,2,4V6A2,2,0,0,0,4,8V43a1,1,0,0,0,1,1H24.382l-8,16H13v2h4a1,1,0,0,0,.895-.553l2.794-5.588L31,53.281V60h2V53.281l10.311,2.578,2.794,5.588A1,1,0,0,0,47,62h4V60H47.618l-8-16H59a1,1,0,0,0,1-1V8a2,2,0,0,0,2-2V4A2,2,0,0,0,60,2ZM21.867,53.5,26.618,44H31v7.219Zm20.266,0L33,51.219V44h4.382ZM58,42H6V8H58ZM59,6H4V4H60V6Z"/><rect x="12" y="35" width="40" height="2"/><path d="M23.092,26.2l8.422,4.679a1,1,0,0,0,1.151-.126L45.5,19.337l1.986,2.234L50,14l-7.813,1.608,1.985,2.234L31.866,28.781l-8.38-4.655a1,1,0,0,0-1.1.084l-9,7,1.228,1.58Z"/></g></svg>
